<?xml version="1.0" standalone="no"?>
<!DOCTYPE svg PUBLIC "-//W3C//DTD SVG 20010904//EN"
 "http://www.w3.org/TR/2001/REC-SVG-20010904/DTD/svg10.dtd">
<svg version="1.0" xmlns="http://www.w3.org/2000/svg"
 width="1024.000000pt" height="1024.000000pt" viewBox="0 0 1024.000000 1024.000000"
 preserveAspectRatio="xMidYMid meet">
<metadata>
Created by potrace 1.14, written by Peter Selinger 2001-2017
</metadata>
<g transform="translate(0.000000,1024.000000) scale(0.100000,-0.100000)"
fill="#000000" stroke="none">
<path d="M2355 10233 c-27 -2 -108 -12 -180 -24 -562 -89 -1037 -331 -1432
-730 -404 -409 -640 -891 -725 -1484 -19 -132 -19 -5618 0 -5750 86 -600 331
-1095 743 -1502 212 -209 401 -344 670 -478 253 -125 495 -199 814 -246 133
-21 5617 -21 5750 0 423 63 787 199 1104 412 556 372 955 961 1085 1599 54
266 51 101 51 3090 0 2989 3 2824 -51 3090 -129 631 -524 1218 -1069 1589
-303 206 -623 334 -1025 409 l-145 27 -2770 1 c-1523 0 -2792 -1 -2820 -3z
m4645 -1619 l125 -496 265 -212 c146 -118 384 -309 530 -426 434 -349 1160
-933 1385 -1113 116 -93 210 -173 210 -178 0 -5 -173 -123 -385 -263 -212
-140 -546 -361 -742 -491 l-358 -238 0 -2008 0 -2009 -260 0 -260 0 0 2153 0
2152 538 355 c612 404 581 383 582 391 0 8 2 7 -1085 880 -126 102 -347 279
-490 394 -143 115 -290 233 -327 263 -52 41 -70 63 -77 91 -5 20 -47 182 -92
361 -45 179 -85 328 -88 332 -11 12 -300 -38 -471 -82 -760 -192 -1355 -585
-1810 -1196 -402 -538 -675 -1261 -789 -2089 -55 -397 -54 -366 -58 -2002 l-4
-1523 725 0 725 0 -15 53 c-122 430 -320 1143 -319 1145 2 2 112 34 246 71
166 46 246 65 250 57 4 -6 95 -319 204 -696 108 -377 227 -790 264 -917 37
-128 65 -235 63 -238 -10 -10 -3256 -5 -3422 6 -318 20 -537 86 -749 226 -158
105 -318 289 -411 473 -68 136 -126 327 -155 515 -22 145 -30 445 -16 588 76
732 472 1268 1086 1471 223 74 398 96 761 96 l242 0 6 23 c3 12 6 67 6 123 0
187 37 559 81 819 129 767 392 1445 770 1988 337 484 803 899 1325 1181 363
196 823 351 1259 426 165 28 273 37 455 39 l155 1 125 -496z m-1478 -1535
c182 -39 330 -179 383 -363 25 -87 17 -229 -19 -317 -55 -134 -179 -248 -317
-290 -99 -30 -246 -24 -339 14 -175 73 -295 241 -307 432 -10 154 36 275 146
386 123 123 287 173 453 138z m1410 0 c92 -20 177 -67 248 -138 198 -200 199
-510 1 -705 -105 -104 -203 -145 -347 -146 -138 0 -243 37 -338 121 -179 158
-221 442 -95 640 41 64 135 152 197 183 101 51 226 68 334 45z m-112 -4804 l0
-1095 -260 0 -260 0 0 1088 c0 599 3 1092 7 1095 3 4 120 7 260 7 l253 0 0
-1095z"/>
<path d="M2340 2815 l0 -1165 240 0 240 0 0 1165 0 1165 -240 0 -240 0 0
-1165z"/>
<path d="M1740 3799 c-81 -53 -234 -205 -284 -282 -90 -138 -147 -280 -188
-471 -19 -88 -22 -132 -22 -341 0 -261 12 -355 70 -517 58 -163 163 -298 302
-389 66 -44 179 -95 188 -86 2 2 3 482 2 1066 l-3 1063 -65 -43z"/>
</g>
</svg>
